<?xml version="1.0" encoding="UTF-8" standalone="no"?>
<!-- Created with Inkscape (http://www.inkscape.org/) -->

<svg
   width="21.252544mm"
   height="16.34234mm"
   viewBox="0 0 21.252544 16.34234"
   version="1.1"
   id="svg1"
   xml:space="preserve"
   xmlns:inkscape="http://www.inkscape.org/namespaces/inkscape"
   xmlns:sodipodi="http://sodipodi.sourceforge.net/DTD/sodipodi-0.dtd"
   xmlns="http://www.w3.org/2000/svg"
   xmlns:svg="http://www.w3.org/2000/svg"><sodipodi:namedview
     id="namedview1"
     pagecolor="#ffffff"
     bordercolor="#000000"
     borderopacity="0.25"
     inkscape:showpageshadow="2"
     inkscape:pageopacity="0.0"
     inkscape:pagecheckerboard="0"
     inkscape:deskcolor="#d1d1d1"
     inkscape:document-units="mm"><inkscape:page
       x="0"
       y="0"
       width="21.252544"
       height="16.34234"
       id="page2"
       margin="0"
       bleed="0" /></sodipodi:namedview><defs
     id="defs1" /><g
     inkscape:label="Layer 1"
     inkscape:groupmode="layer"
     id="layer1"
     transform="translate(-45.465395,-157.458)"><g
       id="g16"
       transform="matrix(0.26458333,0,0,0.26458333,12.851083,94.434247)"><g
         transform="translate(123.2667,258.4667)"
         id="g3"><defs
           id="defs1-0" /><g
           transform="scale(1.33333)"
           id="g2"><g
             transform="translate(-92.481201,-193.8985)"
             id="g1"><path
               d="m 102.0062,193.8985 -1.3687,1.36258 -1.287502,1.40622 -1.1875,1.4562 -1.093795,1.4813 -0.993706,1.51248 -0.881294,1.53122 -0.768807,1.54379 -0.643699,1.54999 -0.524994,1.54382 -0.393807,1.53748 -0.262398,1.51871 -0.112602,1.49371 -0.0062,0.73758 0.0313,0.72491 0.0687,0.71881 0.112503,0.7063 0.143699,0.69989 0.1875,0.68131 0.231301,0.6687 0.268699,0.65628 0.356301,0.71872 0.412498,0.6813 0.462502,0.65 0.512497,0.6062 0.556297,0.5751 0.593704,0.53119 0.643799,0.5 0.681198,0.4625 1.468704,0.81881 1.600102,0.68119 1.7187,0.54379 1.8063,0.40622 1.8812,0.2687 1.9438,0.1438 1.9812,0.006 2.0063,-0.1124 2.0125,-0.2438 1.9937,-0.36881 1.9625,-0.48749 1.9188,-0.6062 0.3875,-1.69372 0.3437,-1.60629 0.3,-1.5 0.2375,-1.41251 0.1625,-1.31879 0.075,-1.22491 -0.025,-1.13758 -0.1437,-1.0437 -0.2625,-0.95001 -0.1813,-0.44379 -0.2187,-0.42492 -0.2563,-0.40009 -0.2937,-0.375 -0.3375,-0.3562 -0.3813,-0.3313 -0.4187,-0.3125 -0.4688,-0.2937 -0.5125,-0.2688 -0.5687,-0.25 -0.6125,-0.22491 -0.6625,-0.2063 -0.7188,-0.1875 -0.775,-0.16248 -1.1312,-0.2312 -1.0625,-0.25 -0.9938,-0.25631 -0.9312,-0.275 -0.8625,-0.29379 -0.8063,-0.2999 -0.75,-0.3125 -0.6875,-0.3313 -0.6375,-0.33752 -0.5812,-0.3562 -0.5375,-0.36258 -0.4875,-0.375 -0.4376,-0.38742 -0.3999,-0.40009 -0.3563,-0.40619 -0.3187,-0.4187 -0.5375,-0.8688 -0.4063,-0.90622 -0.2938,-0.94379 -0.2062,-0.975 -0.1313,-1.00629 -0.0812,-1.03751 z"
               fill="#0000d2"
               fill-opacity="1"
               fill-rule="evenodd"
               id="path1" /></g></g></g><g
         transform="translate(164.6667,238.2)"
         id="g6"><defs
           id="defs3" /><g
           transform="scale(1.33333)"
           id="g5"><g
             transform="translate(-123.5125,-178.6673)"
             id="g4"><path
               d="m 136.1937,178.6673 -1.9437,0.0437 -1.9501,0.15628 -1.9249,0.25622 -1.8876,0.3563 -1.8312,0.44998 -1.7437,0.52502 -0.4625,1.3812 -0.375,1.40628 -0.2813,1.42502 -0.1937,1.4187 -0.0875,1.40628 0.0125,1.38122 0.1187,1.3313 0.2375,1.275 0.3563,1.19998 0.475,1.11871 0.6062,1.01251 0.7438,0.9 0.875,0.7688 0.4937,0.3312 0.5313,0.2938 0.5687,0.25619 0.6,0.21259 0.64379,0.1687 0.68122,0.125 0.98749,0.15622 0.9313,0.17508 0.8687,0.1875 0.8188,0.21252 0.7625,0.21869 0.7124,0.24371 0.6626,0.25629 0.6125,0.26871 0.575,0.2875 0.5249,0.30628 0.48759,0.3125 0.44991,0.3313 0.7876,0.70621 0.6499,0.76251 0.5376,0.81869 0.44371,0.86261 0.34999,0.9187 0.2875,0.96869 0.23751,1.00629 0.19378,1.05621 0.18122,1.09381 0.17499,1.13749 1.3562,-1.38129 1.2938,-1.43121 1.2188,-1.4813 1.1375,-1.5187 1.05,-1.54999 0.9437,-1.57501 0.83129,-1.5875 0.71871,-1.59369 0.5813,-1.6001 0.44371,-1.5874 0.16879,-0.79382 0.125,-0.78748 0.0875,-0.77502 0.05,-0.77499 0.006,-0.76871 -0.0375,-0.75629 -0.0875,-0.75 -0.125,-0.73749 -0.17501,-0.7312 -0.225,-0.71252 -0.2688,-0.7063 -0.32491,-0.6875 -0.41879,-0.74378 -0.4687,-0.7062 -0.5251,-0.65622 -0.5625,-0.60629 -0.6062,-0.56879 -0.65,-0.525 -0.6875,-0.48742 -0.725,-0.44379 -0.7562,-0.39999 -0.78751,-0.36881 -0.81878,-0.32489 -0.84381,-0.2876 -1.7625,-0.475 -1.83119,-0.33121 -1.89371,-0.20001 z"
               fill="#0000d2"
               fill-opacity="1"
               fill-rule="evenodd"
               id="path3" /></g></g></g><g
         transform="translate(138.9333,250.1333)"
         id="g9"><defs
           id="defs6" /><g
           transform="scale(1.33333)"
           id="g8"><g
             transform="translate(-104.2437,-187.63608)"
             id="g7"><path
               d="m 109.6687,187.63608 -1.3687,0.94372 -1.3438,0.99378 -1.3,1.03122 -1.25,1.0375 -0.0875,1.0437 -0.0562,0.98749 -0.0188,0.93131 0.0125,0.875 0.05,0.82498 0.0813,0.7688 0.1125,0.7312 0.15,0.67502 0.1812,0.63748 0.2125,0.59372 0.2438,0.5563 0.2812,0.5188 0.6438,0.9249 0.775,0.79379 0.8937,0.6875 1.0188,0.5875 1.1312,0.51251 1.25,0.44369 1.3625,0.3938 1.4688,0.36249 1.5875,0.35001 1.6875,0.34371 0.6875,0.1688 0.6437,0.2062 0.5875,0.25629 0.5438,0.28751 0.5,0.3312 0.4562,0.36249 0.4188,0.40009 0.3687,0.42492 0.3375,0.4563 0.3,0.48749 0.4938,1.03131 0.3687,1.11869 0.25,1.17501 0.15,1.21869 0.0563,1.24381 -0.0125,1.25619 -0.0813,1.24381 -0.125,1.21878 -0.1625,1.17492 -0.1875,1.1063 -0.2,1.03128 2.4875,-0.94379 1.2313,-0.5188 1.2375,-0.55621 0.0812,-1.15628 0.0563,-1.10001 0.0437,-1.0437 0.025,-0.99371 0.006,-0.93128 -0.0188,-0.88751 -0.0375,-0.83749 -0.0562,-0.78751 -0.075,-0.74371 -0.1063,-0.69379 -0.125,-0.65619 -0.1437,-0.61261 -0.175,-0.56869 -0.1938,-0.53751 -0.4687,-0.9563 -0.575,-0.8312 -0.6813,-0.69999 -0.8,-0.6 -0.9125,-0.5062 -1.0375,-0.41882 -1.1625,-0.34998 -1.2937,-0.30001 -1.4313,-0.25 -0.9687,-0.18119 -0.9063,-0.2251 -0.8437,-0.2749 -0.7875,-0.3063 -0.725,-0.35001 -0.675,-0.38751 -0.6188,-0.4187 -0.5687,-0.4563 -0.525,-0.47498 -0.4688,-0.50622 -0.425,-0.53128 -0.3812,-0.55002 -0.3438,-0.56879 -0.2937,-0.58749 -0.2625,-0.60001 -0.2188,-0.6062 -0.3437,-1.24371 -0.2125,-1.25629 -0.1,-1.25629 -0.006,-1.225 0.0813,-1.1875 0.1562,-1.1124 0.2063,-1.0376 z"
               fill="#eb1b34"
               fill-opacity="1"
               fill-rule="evenodd"
               id="path6" /></g></g></g><g
         transform="translate(147.4667,245.2667)"
         id="g12"><defs
           id="defs9" /><g
           transform="scale(1.33333)"
           id="g11"><g
             transform="translate(-110.6312,-183.99228)"
             id="g10"><path
               d="m 115.8375,183.99228 -1.2813,0.69372 -1.2375,0.6875 -1.2,0.7063 -1.1875,0.7312 -0.1187,1.1063 -0.0875,1.0563 -0.0625,1 -0.0313,0.95618 v 0.90622 l 0.025,0.85629 0.05,0.8125 0.0875,0.76871 0.1125,0.725 0.15,0.6875 0.175,0.6438 0.2125,0.6062 0.5188,1.11249 0.6562,0.96881 0.7938,0.8562 0.9312,0.73749 0.525,0.3313 0.5625,0.30621 0.5938,0.2876 0.6375,0.26868 0.675,0.24371 0.7125,0.2313 0.7562,0.21249 0.7938,0.20001 0.8312,0.18121 0.8813,0.17499 0.9125,0.16251 0.9625,0.15628 0.6312,0.125 0.5938,0.18121 0.5562,0.22501 0.5125,0.2688 0.4813,0.3125 0.4437,0.3562 0.4125,0.3938 0.375,0.42499 0.6625,0.95001 0.53751,1.0563 0.43129,1.14368 0.3312,1.21252 0.24379,1.26249 0.15621,1.28121 0.0813,1.2876 0.0187,1.2749 -0.0438,1.23749 -0.0812,1.17511 -0.125,1.09998 -0.15,1 1.1625,-0.61878 1.1312,-0.6188 1.125,-0.65622 1.1501,-0.71249 0.0937,-1.15 0.0625,-1.09369 0.025,-1.0376 v -0.975 l -0.0313,-0.9249 -0.0625,-0.8688 -0.0937,-0.8187 -0.1187,-0.7688 -0.1438,-0.725 -0.175,-0.67502 -0.2,-0.63129 -0.21871,-0.58749 -0.25,-0.5437 -0.26879,-0.5062 -0.29371,-0.4751 -0.3125,-0.43121 -0.6875,-0.7688 -0.76249,-0.6437 -0.8376,-0.53129 -0.8937,-0.4375 -0.9562,-0.3562 -1.0063,-0.2875 -1.0437,-0.2313 -1.0875,-0.1875 -0.9063,-0.1625 -0.85,-0.1937 -0.7937,-0.2312 -0.75,-0.25631 -0.6938,-0.28751 -0.65,-0.32498 -0.6062,-0.34372 -0.5563,-0.375 -0.5125,-0.40628 -0.4687,-0.43131 -0.425,-0.4562 -0.3875,-0.47501 -0.3438,-0.50629 -0.3125,-0.52499 -0.5062,-1.11871 -0.3688,-1.19999 -0.2437,-1.27502 -0.125,-1.33749 -0.0188,-1.4 0.075,-1.4563 0.1688,-1.5 0.2437,-1.5437 z"
               fill="#eb1b34"
               fill-opacity="1"
               fill-rule="evenodd"
               id="path9" /></g></g></g><g
         transform="translate(155.4,241.7333)"
         id="g15"><defs
           id="defs12" /><g
           transform="scale(1.33333)"
           id="g14"><g
             transform="translate(-116.575,-181.311)"
             id="g13"><path
               d="m 122.1687,181.311 -0.4062,0.13129 -0.5063,0.18121 -0.5937,0.2313 -0.65,0.26248 -1.3813,0.58752 -0.6812,0.29999 -0.6438,0.28751 -0.325,1.9938 -0.2375,1.8562 -0.1375,1.71869 -0.0312,1.58759 0.0812,1.46252 0.2125,1.3374 0.35,1.2251 0.2313,0.5625 0.2687,0.5437 0.3063,0.51249 0.35,0.48129 0.3937,0.46252 0.4313,0.43119 0.4812,0.40621 0.525,0.38758 0.575,0.3562 0.6188,0.33752 0.675,0.3125 0.7187,0.28748 0.7813,0.2688 0.825,0.25 0.8875,0.22491 0.9437,0.2063 1,0.1875 1.0562,0.1687 0.98131,0.21259 0.92499,0.34991 0.8562,0.46881 0.7938,0.5875 0.7188,0.69369 0.6562,0.80011 0.575,0.89368 0.5,0.98752 0.425,1.0625 0.3438,1.1437 0.2562,1.2125 0.1687,1.27499 0.0813,1.32501 -0.0125,1.375 -0.1062,1.4188 -0.2063,1.44998 1.1687,-0.79999 1.1313,-0.81879 1.125,-0.84371 1.15,-0.89371 0.1,-1.47498 v -1.3938 l -0.1,-1.30001 -0.2,-1.2125 -0.3062,-1.125 -0.4001,-1.04999 -0.5,-0.9563 -0.5999,-0.88122 -0.7001,-0.79999 -0.7999,-0.71869 -0.8938,-0.6438 -1,-0.56872 -1.0937,-0.48758 -1.1875,-0.4187 -1.2876,-0.34372 -1.38741,-0.2688 -0.74379,-0.14999 -0.7062,-0.19999 -0.6625,-0.2438 -0.625,-0.2937 -0.5813,-0.3313 -0.5437,-0.375 -0.5063,-0.41251 -0.475,-0.44369 -0.8312,-0.98752 -0.7,-1.09998 -0.5688,-1.20001 -0.4437,-1.27499 -0.325,-1.3313 -0.2188,-1.375 -0.1125,-1.4 -0.0187,-1.3999 0.075,-1.3876 0.1562,-1.3562 0.2313,-1.30631 z"
               fill="#eb1b34"
               fill-opacity="1"
               fill-rule="evenodd"
               id="path12" /></g></g></g></g></g></svg>
